<?xml version="1.0" encoding="UTF-8"?>
<svg width="70px" height="70px" viewBox="0 0 70 70" version="1.1" xmlns="http://www.w3.org/2000/svg" xmlns:xlink="http://www.w3.org/1999/xlink">
    <title>Artboard</title>
    <g id="Artboard" stroke="none" stroke-width="1" fill="none" fill-rule="evenodd">
        <path d="M68.8052657,43.2049497 C68.619478,42.3523513 68.2171325,42.3764998 67.794144,42.3764998 C67.3711555,42.3764998 62.7537256,42.3764998 61.8251762,42.3764998 C60.8970163,42.3764998 60.8417084,41.5577872 60.5184299,40.2272819 C59.7487934,37.0910908 57.8780624,33.5704709 55.6225131,30.599814 C53.3669638,27.6291571 45.7200637,21 35.8172248,21 C25.9147754,21 19.3958446,26.0957263 15.9095,30.0155757 C12.4227659,33.9350356 10.7572973,38.8679542 10.400912,40.6915566 C10.0359578,42.5607296 9.08676533,42.3726049 8.84333272,42.3726049 C8.38957432,42.3726049 0.883670338,42.3726049 0.567402681,42.3726049 C-0.0791543532,42.3726049 0.00341799086,42.5840992 0.00341799086,43.3732103 C0.00341799086,43.8012622 0.00341799086,47.1485581 0.00341799086,48.1234571 C0.00341799086,49.098356 0.0189976784,49.0574425 0.751242994,49.0574425 C1.01960311,49.0574425 25.3118415,49.0574425 26.3327005,49.0574425 C27.353949,49.0574425 27.2300905,48.4225871 27.2300905,48.0872343 C27.2300905,47.752271 27.2300905,44.4770312 27.2300905,43.3576306 C27.2300905,42.2386196 26.8382613,42.3726049 26.0662878,42.3726049 C25.3924663,42.3726049 20.0455176,42.3726049 18.2612538,42.3726049 C16.4766006,42.3726049 17.0440908,41.3205865 17.9516076,39.1542309 C19.5197031,35.1521987 25.3784446,27.8075445 35.4452597,27.8075445 C45.5120749,27.8075445 50.5750838,34.7120725 52.2943024,37.7380373 C54.0131314,40.7636127 54.4672793,43.8067151 54.4672793,44.4256182 C54.4672793,45.0441318 54.4672793,46.9939297 54.4672793,48.0393268 C54.4672793,49.0843343 54.5634838,49.0574425 55.2513271,49.0574425 C55.6088809,49.0574425 68.268935,49.0574425 69.2313702,49.0574425 C70.1941949,49.0574425 70.0068491,48.2574424 69.9398565,47.9894718 C69.8728638,47.7211116 68.990664,44.0575481 68.8052657,43.2049497" id="Fill-10" fill="#000000" fill-rule="nonzero"></path>
    </g>
</svg>